<?xml version="1.0" encoding="UTF-8" standalone="no"?>
<svg
   xmlns:dc="http://purl.org/dc/elements/1.1/"
   xmlns:cc="http://creativecommons.org/ns#"
   xmlns:rdf="http://www.w3.org/1999/02/22-rdf-syntax-ns#"
   xmlns:svg="http://www.w3.org/2000/svg"
   xmlns="http://www.w3.org/2000/svg"
   xmlns:sodipodi="http://sodipodi.sourceforge.net/DTD/sodipodi-0.dtd"
   xmlns:inkscape="http://www.inkscape.org/namespaces/inkscape"
   inkscape:version="1.0 (4035a4fb49, 2020-05-01)"
   sodipodi:docname="backarrow.svg"
   id="svg42"
   version="1.1"
   viewBox="0 0 11 20"
   height="20px"
   width="11px">
  <metadata
     id="metadata48">
    <rdf:RDF>
      <cc:Work
         rdf:about="">
        <dc:format>image/svg+xml</dc:format>
        <dc:type
           rdf:resource="http://purl.org/dc/dcmitype/StillImage" />
      </cc:Work>
    </rdf:RDF>
  </metadata>
  <defs
     id="defs46" />
  <sodipodi:namedview
     inkscape:current-layer="svg42"
     inkscape:window-maximized="1"
     inkscape:window-y="-8"
     inkscape:window-x="-8"
     inkscape:cy="10"
     inkscape:cx="5.5"
     inkscape:zoom="42.5"
     showgrid="false"
     id="namedview44"
     inkscape:window-height="1017"
     inkscape:window-width="1920"
     inkscape:pageshadow="2"
     inkscape:pageopacity="0"
     guidetolerance="10"
     gridtolerance="10"
     objecttolerance="10"
     borderopacity="1"
     bordercolor="#666666"
     pagecolor="#ffffff" />
  <!-- Generator: Sketch 52.5 (67469) - http://www.bohemiancoding.com/sketch -->
  <title
     id="title30">arrow_back_ios</title>
  <desc
     id="desc32">Created with Sketch.</desc>
  <g
     fill-rule="evenodd"
     fill="none"
     stroke-width="1"
     stroke="none"
     id="Icons">
    <g
       transform="translate(-548.000000, -3434.000000)"
       id="Rounded">
      <g
         transform="translate(100.000000, 3378.000000)"
         id="Navigation">
        <g
           transform="translate(442.000000, 54.000000)"
           id="-Round-/-Navigation-/-arrow_back_ios">
          <g
             id="g36">
            <polygon
               points="0 0 24 0 24 24 0 24"
               opacity="0.87"
               id="Path" />
            <path
               fill="#1D1D1D"
               id="🔹-Icon-Color"
               d="M16.62,2.99 C16.13,2.5 15.34,2.5 14.85,2.99 L6.54,11.3 C6.15,11.69 6.15,12.32 6.54,12.71 L14.85,21.02 C15.34,21.51 16.13,21.51 16.62,21.02 C17.11,20.53 17.11,19.74 16.62,19.25 L9.38,12 L16.63,4.75 C17.11,4.27 17.11,3.47 16.62,2.99 Z" />
          </g>
        </g>
      </g>
    </g>
  </g>
  <path
     id="path50"
     d="M 9.3823529,19.320414 C 9.2034068,19.262668 9.1110652,19.211823 8.9470588,19.080729 8.8694118,19.018665 6.9251308,17.08511 4.6264346,14.783942 0.7472576,10.900593 0.44164438,10.588934 0.37262329,10.44597 0.21347384,10.116323 0.22909998,9.7740616 0.41626818,9.4900113 0.47463224,9.4014369 2.0122018,7.8490002 4.7621172,5.1021416 8.5790882,1.2894132 9.0327774,0.84382432 9.1644642,0.77839538 9.6679553,0.52823451 10.208888,0.61546428 10.607748,1.0111364 c 0.384897,0.3818217 0.472388,0.9165945 0.231071,1.412393 l -0.09734,0.2 L 7.0567856,6.3114033 3.3720967,9.9992772 3.46546,10.099359 c 0.05135,0.05504 1.6957176,1.705601 3.6541506,3.667904 1.9584329,1.962303 3.5968284,3.618516 3.6408794,3.680474 0.166746,0.234533 0.243625,0.562057 0.200301,0.853343 -0.07009,0.471246 -0.414064,0.873585 -0.869152,1.016624 -0.1937409,0.0609 -0.5250548,0.06216 -0.7092861,0.0027 z"
     style="fill:#ffffff;stroke-width:0.0235294" />
</svg>
