<?xml version="1.0" encoding="UTF-8" standalone="no"?>
<svg
   xmlns:dc="http://purl.org/dc/elements/1.1/"
   xmlns:cc="http://creativecommons.org/ns#"
   xmlns:rdf="http://www.w3.org/1999/02/22-rdf-syntax-ns#"
   xmlns:svg="http://www.w3.org/2000/svg"
   xmlns="http://www.w3.org/2000/svg"
   xmlns:sodipodi="http://sodipodi.sourceforge.net/DTD/sodipodi-0.dtd"
   xmlns:inkscape="http://www.inkscape.org/namespaces/inkscape"
   inkscape:version="1.0 (4035a4fb49, 2020-05-01)"
   sodipodi:docname="play-icon.svg"
   id="svg33"
   xml:space="preserve"
   width="32px"
   viewBox="0 0 32 32"
   version="1.1"
   height="32px"
   enable-background="new 0 0 32 32"><metadata
     id="metadata39"><rdf:RDF><cc:Work
         rdf:about=""><dc:format>image/svg+xml</dc:format><dc:type
           rdf:resource="http://purl.org/dc/dcmitype/StillImage" /></cc:Work></rdf:RDF></metadata><defs
     id="defs37" /><sodipodi:namedview
     inkscape:current-layer="svg33"
     inkscape:window-maximized="1"
     inkscape:window-y="-8"
     inkscape:window-x="-8"
     inkscape:cy="16"
     inkscape:cx="16"
     inkscape:zoom="26.5625"
     showgrid="false"
     id="namedview35"
     inkscape:window-height="1017"
     inkscape:window-width="1920"
     inkscape:pageshadow="2"
     inkscape:pageopacity="0"
     guidetolerance="10"
     gridtolerance="10"
     objecttolerance="10"
     borderopacity="1"
     bordercolor="#666666"
     pagecolor="#ffffff" /><g
     id="play"><g
       id="g6"><path
         id="path2"
         d="M4.993,2.496C4.516,2.223,4,2.45,4,3v26c0,0.55,0.516,0.777,0.993,0.504l22.826-13.008    c0.478-0.273,0.446-0.719-0.031-0.992L4.993,2.496z" /><path
         id="path4"
         d="M4.585,30.62L4.585,30.62C3.681,30.62,3,29.923,3,29V3c0-0.923,0.681-1.62,1.585-1.62c0.309,0,0.621,0.085,0.904,0.248    l22.794,13.007c0.559,0.319,0.878,0.823,0.878,1.382c0,0.548-0.309,1.039-0.847,1.347L5.488,30.373    C5.206,30.534,4.894,30.62,4.585,30.62z M5,3.651v24.698l21.655-12.34L5,3.651z" /></g></g><g
     id="stop" /><g
     id="pause" /><g
     id="replay" /><g
     id="next" /><g
     id="Layer_8" /><g
     id="search" /><g
     id="list" /><g
     id="love" /><g
     id="menu" /><g
     id="add" /><g
     id="headset" /><g
     id="random" /><g
     id="music" /><g
     id="setting" /><g
     id="Layer_17" /><g
     id="Layer_18" /><g
     id="Layer_19" /><g
     id="Layer_20" /><g
     id="Layer_21" /><g
     id="Layer_22" /><g
     id="Layer_23" /><g
     id="Layer_24" /><g
     id="Layer_25" /><g
     id="Layer_26" /><path
     id="path864"
     d="M 4.2558231,30.568281 C 4.0181136,30.518358 3.727778,30.36797 3.5256921,30.190086 3.3242007,30.012727 3.106849,29.603691 3.0493662,29.293685 2.9945056,28.997821 2.9977859,2.988894 3.0527217,2.6892672 3.2441537,1.6451719 4.3508315,1.1066826 5.3327383,1.5798526 5.4538499,1.638215 10.703059,4.6247284 16.997647,8.2165489 29.588006,15.400865 28.74928,14.897251 28.997847,15.422082 29.107532,15.653675 29.12,15.714664 29.12,16.019615 c 0,0.307377 -0.01167,0.36331 -0.122884,0.589228 -0.248075,0.503913 0.232905,0.21182 -9.157593,5.561272 -4.710851,2.683613 -9.9017205,5.640933 -11.5352659,6.571822 -1.6335454,0.930889 -3.0637082,1.724133 -3.1781397,1.762765 -0.2482527,0.08381 -0.6382898,0.112304 -0.8702943,0.06358 z"
     style="fill:#ffffff;stroke-width:0.0376471" /></svg>
