<?xml version="1.0" encoding="UTF-8" standalone="no"?>
<svg
   xmlns:dc="http://purl.org/dc/elements/1.1/"
   xmlns:cc="http://creativecommons.org/ns#"
   xmlns:rdf="http://www.w3.org/1999/02/22-rdf-syntax-ns#"
   xmlns:svg="http://www.w3.org/2000/svg"
   xmlns="http://www.w3.org/2000/svg"
   xmlns:sodipodi="http://sodipodi.sourceforge.net/DTD/sodipodi-0.dtd"
   xmlns:inkscape="http://www.inkscape.org/namespaces/inkscape"
   inkscape:version="1.0 (4035a4fb49, 2020-05-01)"
   sodipodi:docname="trash-icon (1).svg"
   xml:space="preserve"
   width="512px"
   viewBox="0 0 512 512"
   version="1.1"
   style="enable-background:new 0 0 512 512;"
   id="Layer_1"
   height="512px"><metadata
     id="metadata13"><rdf:RDF><cc:Work
         rdf:about=""><dc:format>image/svg+xml</dc:format><dc:type
           rdf:resource="http://purl.org/dc/dcmitype/StillImage" /></cc:Work></rdf:RDF></metadata><defs
     id="defs11" /><sodipodi:namedview
     inkscape:current-layer="Layer_1"
     inkscape:window-maximized="1"
     inkscape:window-y="-8"
     inkscape:window-x="-8"
     inkscape:cy="256"
     inkscape:cx="256"
     inkscape:zoom="1.6601562"
     showgrid="false"
     id="namedview9"
     inkscape:window-height="1017"
     inkscape:window-width="1920"
     inkscape:pageshadow="2"
     inkscape:pageopacity="0"
     guidetolerance="10"
     gridtolerance="10"
     objecttolerance="10"
     borderopacity="1"
     bordercolor="#666666"
     pagecolor="#ffffff" /><g
     id="g6"><path
       id="path2"
       d="M413.7,133.4c-2.4-9-4-14-4-14c-2.6-9.3-9.2-9.3-19-10.9l-53.1-6.7c-6.6-1.1-6.6-1.1-9.2-6.8c-8.7-19.6-11.4-31-20.9-31   h-103c-9.5,0-12.1,11.4-20.8,31.1c-2.6,5.6-2.6,5.6-9.2,6.8l-53.2,6.7c-9.7,1.6-16.7,2.5-19.3,11.8c0,0-1.2,4.1-3.7,13   c-3.2,11.9-4.5,10.6,6.5,10.6h302.4C418.2,144.1,417,145.3,413.7,133.4z" /><path
       id="path4"
       d="M379.4,176H132.6c-16.6,0-17.4,2.2-16.4,14.7l18.7,242.6c1.6,12.3,2.8,14.8,17.5,14.8h207.2c14.7,0,15.9-2.5,17.5-14.8   l18.7-242.6C396.8,178.1,396,176,379.4,176z" /></g><path
     id="path838"
     d="m 142.43762,446.91167 c -4.11535,-1.20427 -5.87331,-4.27478 -6.90067,-12.05297 -1.18233,-8.95144 -19.37184,-247.705 -19.12213,-250.9951 0.29478,-3.88408 1.86921,-5.77923 5.57675,-6.7128 3.30542,-0.83232 264.39753,-0.91679 267.97623,-0.0867 3.57858,0.83006 5.32335,2.93237 5.61453,6.76503 0.24898,3.27746 -17.91052,241.81209 -19.1138,251.0697 -0.8008,6.16109 -2.30878,9.55676 -4.95456,11.15669 -1.94296,1.17493 -3.54134,1.19293 -114.61044,1.29101 -64.09117,0.0566 -113.42698,-0.13084 -114.46591,-0.43485 z"
     style="fill:#ffffff;stroke-width:0.602353" /><path
     id="path840"
     d="m 97.430588,143.54713 c -0.579764,-0.1515 -1.054117,-0.68313 -1.054117,-1.18138 0,-1.47117 6.077129,-22.63614 7.065079,-24.60575 2.16392,-4.31401 5.22426,-6.25782 12.21021,-7.75546 2.48471,-0.53266 17.49491,-2.60063 33.35601,-4.59549 17.73228,-2.2302 29.5952,-3.98616 30.80361,-4.55959 2.11675,-1.004462 2.51474,-1.758679 9.67099,-18.327107 1.93176,-4.472471 4.12109,-9.203898 4.86518,-10.514284 2.03755,-3.588215 5.50307,-6.876878 7.65424,-7.263606 1.04207,-0.18734 26.01892,-0.262071 55.50409,-0.16607 52.51152,0.170974 53.64339,0.19922 55.26866,1.379254 2.93909,2.133944 5.99919,7.530277 11.4111,20.12291 2.91185,6.775393 5.86038,12.921491 6.55229,13.657997 1.62621,1.731016 2.95016,1.955216 35.49266,6.010336 26.3935,3.2889 34.63287,4.5826 37.03277,5.81469 1.84302,0.94619 3.94715,3.00299 4.85331,4.74415 0.95531,1.8356 7.50686,24.45823 7.50686,25.92133 0,0.55113 -0.42876,1.16658 -0.9528,1.36767 -1.09168,0.41893 -315.635478,0.36975 -317.240142,-0.0496 z"
     style="fill:#ffffff;stroke-width:0.602353" /></svg>
